<?xml version="1.0" encoding="utf-8"?>
<!-- Generator: Adobe Illustrator 27.1.1, SVG Export Plug-In . SVG Version: 6.00 Build 0)  -->
<svg version="1.1" id="Layer_1" xmlns="http://www.w3.org/2000/svg" xmlns:xlink="http://www.w3.org/1999/xlink" x="0px" y="0px"
	 viewBox="0 0 512 512" style="enable-background:new 0 0 512 512;" xml:space="preserve">
<style type="text/css">
	.st0{fill-rule:evenodd;clip-rule:evenodd;}
</style>
<g>
	<path class="st0" d="M60.52,298.18H37.87v-32.3H23.2v32.3H0v-83.34h23.2v31.09h14.67v-31.09h22.65V298.18z M164.38,298.56
		c23.2,0,42.14-19.3,42.14-42.79c0-23.86-18.94-42.33-42.14-42.33c-23.48,0-35.37,17.08-38.24,24.04c0-10.3-10.31-22.65-22.27-22.65
		h-38.7v83.35h36.01c14.67,0,24.96-12.53,24.96-23.48C129.39,281.47,140.9,298.56,164.38,298.56L164.38,298.56z M98.3,264.68
		c3.34,0,6.03,3.25,6.03,6.96c0,3.9-2.69,7.15-6.03,7.15H86.79v-14.11H98.3z M98.3,233.4c3.34,0,6.03,3.25,6.03,6.96
		c0,3.71-2.69,6.96-6.03,6.96H86.79V233.4H98.3z M113.52,255.77c2.69-0.19,7.06-3.25,8.72-5.11c-0.65,2.23-0.65,9.29,0,11.51
		C120.39,259.48,116.21,256.23,113.52,255.77z M143.22,255.77c0-11.74,9.54-21.24,21.3-21.16c11.66,0.05,21.07,9.54,21.03,21.2
		c0,0.09,0,0.18,0,0.28c-0.17,11.64-9.58,20.94-21.16,20.94C152.69,277.02,143.22,267.56,143.22,255.77z M164.38,272.48
		c9.01,0,16.61-7.42,16.61-16.71s-7.61-16.61-16.61-16.61c-9.29,0-16.71,7.34-16.71,16.61C147.67,265.05,155.1,272.48,164.38,272.48
		L164.38,272.48z"/>
	<path d="M327.58,244.34c-0.47-20.2-14.72-30.89-32.25-30.89c-9.63,0-18.27,3.23-24.17,9.48c-5.91-6.26-14.55-9.49-24.16-9.49
		c-17.53,0-31.8,10.71-32.25,30.93c-0.01,0.04-0.01,0.09-0.01,0.14v46.05c0,4.23,3.43,7.66,7.66,7.66h7.23
		c0.71,0,1.28-0.57,1.28-1.28v-52.43h0.01c0.31-9.96,7.39-15.24,16.08-15.24s15.77,5.28,16.08,15.24h0.01v46.05
		c0,4.23,3.43,7.66,7.66,7.66h7.23c0.71,0,1.28-0.57,1.28-1.28v-52.43h0.01c0.31-9.96,7.39-15.24,16.08-15.24
		s15.77,5.28,16.08,15.24h0.01v46.05c0,4.23,3.43,7.66,7.66,7.66h7.23c0.71,0,1.28-0.57,1.28-1.28v-52.43
		C327.6,244.45,327.59,244.4,327.58,244.34z"/>
	<path d="M490.49,214.8h-12.27c-3.4,0-6.57,1.69-8.47,4.5l-13.57,20.12c-1.37,2.04-4.15,2.59-6.19,1.21
		c-0.48-0.32-0.89-0.73-1.21-1.21l-13.57-20.12c-1.9-2.82-5.07-4.5-8.47-4.5h-12.27c-0.53,0-0.95,0.43-0.96,0.95
		c0,0.19,0.06,0.38,0.16,0.54l24.23,35.93c1.74,2.59,1.74,5.98,0,8.57l-24.23,35.93c-0.3,0.44-0.18,1.03,0.26,1.33
		c0.16,0.11,0.34,0.16,0.53,0.16h12.27c3.4,0,6.57-1.69,8.47-4.5l13.57-20.12c1.37-2.04,4.15-2.59,6.19-1.21
		c0.48,0.32,0.89,0.73,1.21,1.21l13.57,20.12c1.9,2.82,5.07,4.5,8.47,4.5h12.27c0.53,0,0.95-0.43,0.96-0.95
		c0-0.19-0.06-0.38-0.16-0.54l-24.23-35.93c-1.74-2.59-1.74-5.98,0-8.57l24.23-35.93c0.3-0.44,0.18-1.03-0.25-1.33
		C490.87,214.86,490.68,214.8,490.49,214.8z"/>
	<path d="M408.03,214.8h-7.23c-3.61,0-6.73,2.52-7.49,6.04c-6.45-4.89-14.5-7.4-23.24-7.4c-21.19,0-38.36,14.74-38.36,42.56
		s17.18,42.56,38.36,42.56c8.67,0,16.67-2.47,23.1-7.3c0.36,3.94,3.67,6.96,7.63,6.96h7.23c0.71,0,1.28-0.57,1.28-1.28v-80.86
		C409.31,215.38,408.74,214.8,408.03,214.8z M370.07,282.72c-12.65,0-22.9-9.25-22.9-26.72s10.26-26.72,22.9-26.72
		c12.65,0,22.9,9.25,22.9,26.72S382.72,282.72,370.07,282.72z"/>
	<polygon points="501.63,216.41 499.22,216.41 499.22,223.66 497.46,223.66 497.46,216.41 495.06,216.41 495.06,214.72 
		501.63,214.72 	"/>
	<polygon points="512,223.66 510.25,223.66 510.25,217.87 507.74,222.01 507.53,222.01 505.02,217.88 505.02,223.66 503.26,223.66 
		503.26,214.72 505.07,214.72 507.63,218.94 510.19,214.72 512,214.72 512,223.66 	"/>
</g>
</svg>
